<?xml version="1.0" encoding="UTF-8" standalone="no"?>
<!-- Generator: Adobe Illustrator 16.0.0, SVG Export Plug-In . SVG Version: 6.00 Build 0)  -->

<svg
   xmlns:dc="http://purl.org/dc/elements/1.1/"
   xmlns:cc="http://creativecommons.org/ns#"
   xmlns:rdf="http://www.w3.org/1999/02/22-rdf-syntax-ns#"
   xmlns:svg="http://www.w3.org/2000/svg"
   xmlns="http://www.w3.org/2000/svg"
   xmlns:sodipodi="http://sodipodi.sourceforge.net/DTD/sodipodi-0.dtd"
   xmlns:inkscape="http://www.inkscape.org/namespaces/inkscape"
   version="1.1"
   x="0px"
   y="0px"
   width="554.22198"
   height="160.793"
   viewBox="0 0 554.22198 160.793"
   enable-background="new 0 0 612 792"
   xml:space="preserve"
   id="svg2"
   inkscape:version="0.48.4 r9939"
   sodipodi:docname="CPV-wide.svg"><metadata
     id="metadata145"><rdf:RDF><cc:Work
         rdf:about=""><dc:format>image/svg+xml</dc:format><dc:type
           rdf:resource="http://purl.org/dc/dcmitype/StillImage" /></cc:Work></rdf:RDF></metadata><defs
     id="defs143" /><sodipodi:namedview
     pagecolor="#ffffff"
     bordercolor="#666666"
     borderopacity="1"
     objecttolerance="10"
     gridtolerance="10"
     guidetolerance="10"
     inkscape:pageopacity="0"
     inkscape:pageshadow="2"
     inkscape:window-width="640"
     inkscape:window-height="480"
     id="namedview141"
     showgrid="false"
     fit-margin-top="0"
     fit-margin-left="0"
     fit-margin-right="0"
     fit-margin-bottom="0"
     inkscape:zoom="0.2979798"
     inkscape:cx="279.903"
     inkscape:cy="-4.564"
     inkscape:window-x="10"
     inkscape:window-y="174"
     inkscape:window-maximized="0"
     inkscape:current-layer="svg2" /><g
     id="Layer_2"
     transform="translate(-26.097,-230.64301)"><rect
       x="30.597"
       y="235.14301"
       stroke-miterlimit="10"
       width="545.22198"
       height="133.76601"
       id="rect5"
       style="fill:#ffffff;stroke:#000000;stroke-width:9;stroke-miterlimit:10" /><rect
       x="31"
       y="284.10901"
       width="544"
       height="35"
       id="rect7" /></g><g
     id="Layer_3"
     transform="translate(-26.097,-230.64301)"><rect
       x="81.564003"
       y="255.564"
       transform="matrix(0.7071,0.7071,-0.7071,0.7071,250.7654,-1.9457)"
       stroke-miterlimit="10"
       width="92.334999"
       height="92.334999"
       id="rect10"
       style="fill:none;stroke:#000000;stroke-width:5;stroke-miterlimit:10" /><rect
       x="430.897"
       y="255.564"
       transform="matrix(0.7071,0.7071,-0.7071,0.7071,353.0808,-248.9596)"
       stroke-miterlimit="10"
       width="92.334999"
       height="92.334999"
       id="rect12"
       style="fill:none;stroke:#000000;stroke-width:5;stroke-miterlimit:10" /></g><g
     id="Layer_1"
     transform="translate(-26.097,-230.64301)"><polygon
       points="395.029,329.827 392.174,338.354 364.238,330.357 395.621,347.717 397.982,340.665 430.826,350.691 "
       id="polygon15" /><polygon
       points="200.564,273.413 203.418,264.885 231.352,272.883 199.97,255.523 197.61,262.575 166.921,253.27 "
       id="polygon17" /><polygon
       points="202.791,330.032 205.66,338.554 233.581,330.51 202.228,347.924 199.854,340.875 167.027,350.958 "
       id="polygon19" /><polygon
       points="397.158,273.286 394.291,264.764 366.369,272.809 397.721,255.395 400.094,262.443 430.766,253.087 "
       id="polygon21" /><circle
       clip-rule="evenodd"
       stroke-miterlimit="10"
       cx="298.30801"
       cy="301.966"
       r="68.445999"
       id="circle23"
       sodipodi:cx="298.30801"
       sodipodi:cy="301.966"
       sodipodi:rx="68.445999"
       sodipodi:ry="68.445999"
       style="fill:#ffffff;fill-rule:evenodd;stroke:#000000;stroke-width:2.10610008;stroke-miterlimit:10"
       d="m 366.75401,301.966 c 0,37.80168 -30.64431,68.446 -68.446,68.446 -37.80168,0 -68.446,-30.64432 -68.446,-68.446 0,-37.80168 30.64432,-68.446 68.446,-68.446 37.80169,0 68.446,30.64432 68.446,68.446 z" /><circle
       clip-rule="evenodd"
       cx="298.30801"
       cy="301.966"
       r="62.917"
       id="circle25"
       sodipodi:cx="298.30801"
       sodipodi:cy="301.966"
       sodipodi:rx="62.917"
       sodipodi:ry="62.917"
       style="fill-rule:evenodd"
       d="m 361.22501,301.966 c 0,34.7481 -28.1689,62.917 -62.917,62.917 -34.7481,0 -62.917,-28.1689 -62.917,-62.917 0,-34.7481 28.1689,-62.917 62.917,-62.917 34.7481,0 62.917,28.1689 62.917,62.917 z" /><g
       id="g27"><g
         id="g29"><g
           id="g31"><path
             clip-rule="evenodd"
             d="m 317.012,265.284 c 0.244,0 0.494,0.007 0.738,0 0.465,-0.013 0.91,0 1.35,0.217 0.236,0.115 0.543,0.091 0.816,0.115 0.963,0.087 1.863,0.354 2.684,0.881 0.248,0.161 0.516,0.3 0.789,0.42 0.672,0.304 1.328,0.639 1.891,1.126 0.113,0.098 0.191,0.236 0.299,0.346 0.199,0.205 0.385,0.431 0.615,0.594 0.451,0.32 0.896,0.618 1.191,1.122 0.312,0.539 0.736,1.011 1.064,1.537 0.295,0.479 0.574,0.973 0.773,1.492 0.207,0.539 0.275,1.124 0.465,1.67 0.145,0.424 0.092,0.84 0.117,1.267 0.029,0.524 0.105,1.058 0.25,1.565 0.137,0.489 0.559,0.657 1.051,0.756 0.697,0.142 1.377,0.367 2.059,0.573 1.062,0.323 1.902,1.027 2.797,1.644 0.793,0.547 1.492,1.189 2.113,1.911 0.498,0.58 0.922,1.229 1.334,1.876 0.334,0.521 0.664,1.059 0.887,1.634 0.244,0.633 0.355,1.312 0.531,1.969 0.229,0.849 0.328,1.707 0.203,2.58 -0.002,0.022 -0.002,0.042 -0.002,0.064 0.066,1.06 -0.105,2.088 -0.32,3.126 -0.168,0.809 -0.449,1.538 -0.879,2.222 -0.518,0.834 -1.045,1.665 -1.633,2.451 -0.305,0.404 -0.781,0.675 -1.109,1.062 -0.562,0.662 -1.242,1.179 -1.963,1.618 -0.771,0.472 -1.619,0.831 -2.453,1.189 -0.506,0.217 -1.051,0.347 -1.578,0.5 -0.176,0.05 -0.365,0.058 -0.549,0.079 -0.305,0.035 -0.621,0.02 -0.91,0.112 -0.814,0.261 -1.643,0.117 -2.467,0.127 -0.629,0.008 -1.277,-0.013 -1.885,-0.158 -0.615,-0.149 -1.283,-0.186 -1.832,-0.586 -0.186,-0.134 -0.428,-0.195 -0.65,-0.266 -0.758,-0.237 -1.484,-0.528 -2.084,-1.086 -0.242,-0.225 -0.588,-0.328 -0.863,-0.522 -0.332,-0.234 -0.67,-0.476 -0.955,-0.766 -0.463,-0.465 -0.906,-0.953 -1.32,-1.466 -0.443,-0.56 -0.842,-1.161 -1.26,-1.743 -0.113,-0.157 -0.236,-0.312 -0.334,-0.479 -0.107,-0.184 -0.182,-0.381 -0.287,-0.567 -0.117,-0.21 -0.219,-0.44 -0.385,-0.614 -0.193,-0.206 -0.463,-0.219 -0.703,-0.046 -0.785,0.568 -1.648,1.016 -2.357,1.707 -0.547,0.53 -1.238,0.911 -1.863,1.358 -0.084,0.06 -0.17,0.114 -0.246,0.18 -0.604,0.512 -1.197,1.034 -1.812,1.53 -0.551,0.443 -1.123,0.858 -1.687,1.284 -0.324,0.247 -0.653,0.493 -0.977,0.743 -0.313,0.244 -0.368,0.722 -0.067,1.04 0.393,0.417 0.813,0.814 1.252,1.181 0.645,0.543 1.309,1.061 1.977,1.57 0.682,0.52 1.395,1.002 2.062,1.538 0.656,0.528 1.273,1.102 1.906,1.652 0.115,0.104 0.217,0.234 0.348,0.303 0.785,0.392 1.391,1.01 2.045,1.567 0.488,0.407 1.014,0.767 1.514,1.159 0.27,0.219 0.512,0.471 0.785,0.689 0.742,0.596 1.484,1.191 2.238,1.772 0.961,0.733 1.967,1.411 2.844,2.255 0.463,0.439 1.051,0.747 1.559,1.146 0.494,0.395 0.949,0.841 1.438,1.247 0.35,0.291 0.721,0.557 1.084,0.831 0.123,0.09 0.258,0.165 0.375,0.262 1.051,0.854 2.096,1.711 3.146,2.57 0.529,0.434 1.055,0.875 1.594,1.298 0.711,0.558 1.41,1.127 2.146,1.645 0.555,0.388 0.926,0.917 1.311,1.448 0.428,0.595 0.377,1.183 0.104,1.846 -0.471,1.137 -1.395,1.854 -2.25,2.645 -0.201,0.186 -0.346,0.437 -0.553,0.614 -0.156,0.133 -0.365,0.208 -0.559,0.283 -0.148,0.062 -0.322,0.06 -0.475,0.12 -0.518,0.214 -0.959,0.055 -1.383,-0.241 -1.035,-0.73 -2.066,-1.471 -3.107,-2.194 -0.57,-0.395 -1.125,-0.208 -1.461,0.402 -0.178,0.325 -0.457,0.596 -0.697,0.889 -0.57,0.697 -1.143,1.396 -1.729,2.084 -0.521,0.613 -1.07,1.204 -1.592,1.819 -0.518,0.612 -1.006,1.246 -1.518,1.865 -0.193,0.239 -0.396,0.474 -0.621,0.682 -0.369,0.339 -0.686,0.35 -1.07,0.025 -0.602,-0.508 -1.182,-1.045 -1.787,-1.549 -0.672,-0.56 -1.357,-1.095 -2.035,-1.647 -0.199,-0.159 -0.385,-0.339 -0.57,-0.516 -0.373,-0.345 -0.424,-0.729 -0.104,-1.116 0.662,-0.795 1.354,-1.564 2.014,-2.358 0.432,-0.521 0.836,-1.064 1.254,-1.599 0.07,-0.089 0.137,-0.18 0.215,-0.259 0.326,-0.345 0.367,-0.608 0.072,-0.981 -0.205,-0.26 -0.457,-0.494 -0.713,-0.706 -0.236,-0.195 -0.514,-0.183 -0.732,0.028 -0.307,0.296 -0.596,0.615 -0.885,0.938 -0.342,0.377 -0.672,0.772 -1.01,1.154 -0.244,0.273 -0.508,0.528 -0.742,0.812 -0.244,0.288 -0.432,0.623 -0.695,0.89 -0.355,0.349 -0.746,0.662 -1.139,0.961 -0.088,0.065 -0.303,0.059 -0.402,-0.003 -0.35,-0.206 -0.693,-0.437 -1.012,-0.69 -0.248,-0.2 -0.264,-0.512 -0.057,-0.769 0.705,-0.875 1.426,-1.744 2.139,-2.616 0.539,-0.657 1.082,-1.316 1.627,-1.973 0.242,-0.291 0.504,-0.568 0.734,-0.873 0.535,-0.712 1.055,-1.436 1.584,-2.155 0.053,-0.072 0.1,-0.153 0.162,-0.224 0.438,-0.518 0.414,-0.734 0.035,-1.304 -0.322,-0.487 -0.834,-0.72 -1.258,-1.07 -0.971,-0.802 -1.949,-1.599 -2.938,-2.385 -0.889,-0.71 -1.791,-1.401 -2.684,-2.106 -0.805,-0.635 -1.59,-1.292 -2.401,-1.92 -0.793,-0.615 -1.606,-1.2 -2.405,-1.809 -0.229,-0.173 -0.436,-0.368 -0.651,-0.555 -0.046,-0.042 -0.086,-0.095 -0.134,-0.129 -1.311,-1.056 -2.618,-2.112 -3.931,-3.163 -0.185,-0.145 -0.388,-0.271 -0.591,-0.391 -0.397,-0.237 -0.809,-0.268 -1.182,0.02 -0.534,0.414 -1.032,0.867 -1.561,1.289 -0.568,0.452 -1.159,0.882 -1.731,1.334 -1.094,0.864 -2.183,1.735 -3.272,2.607 -0.16,0.124 -0.329,0.244 -0.486,0.372 -0.203,0.172 -0.398,0.351 -0.596,0.528 -0.06,0.054 -0.111,0.12 -0.178,0.168 -0.708,0.556 -1.422,1.102 -2.131,1.655 -0.97,0.752 -1.936,1.514 -2.9,2.271 -0.01,0.006 -0.019,0.011 -0.026,0.017 -0.786,0.657 -1.568,1.318 -2.358,1.969 -0.57,0.473 -1.162,0.918 -1.726,1.394 -0.536,0.453 -0.588,0.81 -0.174,1.358 0.846,1.119 1.712,2.223 2.569,3.334 0.747,0.965 1.486,1.935 2.23,2.898 0.357,0.463 0.72,0.919 1.079,1.378 0.044,0.06 0.093,0.111 0.13,0.174 0.349,0.522 0.312,0.741 -0.213,1.085 -0.223,0.146 -0.457,0.276 -0.691,0.405 -0.403,0.215 -0.771,0.131 -1.226,-0.411 -0.587,-0.698 -1.119,-1.443 -1.685,-2.161 -0.215,-0.272 -0.459,-0.524 -0.689,-0.788 -0.238,-0.278 -0.49,-0.547 -0.716,-0.841 -0.367,-0.482 -0.743,-0.565 -1.241,-0.234 -0.156,0.102 -0.299,0.217 -0.448,0.327 -0.388,0.29 -0.408,0.718 -0.101,1.088 0.651,0.786 1.275,1.596 1.923,2.388 0.232,0.281 0.5,0.538 0.752,0.804 0.042,0.046 0.121,0.079 0.132,0.127 0.114,0.486 0.569,0.674 0.865,0.996 0.259,0.285 0.272,0.443 -0.027,0.695 -0.636,0.534 -1.297,1.042 -1.933,1.569 -0.354,0.297 -0.668,0.64 -1.028,0.924 -0.716,0.564 -1.454,1.104 -2.188,1.647 -0.248,0.183 -0.572,0.181 -0.788,-0.045 -0.286,-0.305 -0.54,-0.643 -0.804,-0.968 -0.303,-0.371 -0.606,-0.746 -0.9,-1.127 -0.602,-0.765 -1.196,-1.535 -1.795,-2.304 -0.084,-0.103 -0.165,-0.212 -0.257,-0.307 -0.751,-0.755 -1.354,-1.62 -1.976,-2.477 -0.181,-0.248 -0.459,-0.443 -0.728,-0.601 -0.225,-0.129 -0.485,-0.049 -0.691,0.114 -0.275,0.216 -0.538,0.445 -0.806,0.666 -0.711,0.59 -1.414,1.19 -2.14,1.761 -0.165,0.13 -0.408,0.183 -0.626,0.223 -1.271,0.228 -2.049,-0.557 -2.787,-1.396 -0.309,-0.353 -0.572,-0.749 -0.864,-1.117 -0.57,-0.72 -0.92,-1.521 -0.788,-2.445 0.048,-0.345 0.231,-0.715 0.459,-0.979 0.357,-0.419 0.798,-0.766 1.218,-1.128 0.597,-0.514 1.201,-1.02 1.811,-1.515 0.465,-0.381 0.961,-0.728 1.42,-1.119 0.507,-0.429 0.98,-0.894 1.479,-1.334 0.216,-0.189 0.452,-0.349 0.679,-0.526 0.111,-0.088 0.224,-0.175 0.331,-0.27 0.253,-0.223 0.498,-0.452 0.757,-0.666 0.269,-0.223 0.553,-0.424 0.818,-0.646 0.892,-0.755 1.778,-1.513 2.663,-2.273 0.667,-0.578 1.314,-1.176 1.992,-1.736 0.709,-0.588 1.448,-1.136 2.168,-1.715 0.276,-0.225 0.524,-0.487 0.801,-0.722 1.124,-0.937 2.243,-1.88 3.386,-2.795 0.553,-0.443 1.153,-0.822 1.724,-1.24 0.18,-0.131 0.336,-0.295 0.498,-0.447 0.283,-0.264 0.551,-0.547 0.842,-0.797 0.35,-0.299 0.713,-0.583 1.076,-0.86 0.456,-0.342 0.922,-0.673 1.387,-1.006 0.1,-0.074 0.215,-0.122 0.305,-0.201 0.589,-0.51 1.161,-1.038 1.763,-1.532 0.409,-0.34 0.87,-0.616 1.284,-0.953 0.27,-0.214 0.503,-0.479 0.74,-0.729 0.184,-0.195 0.188,-0.422 0.019,-0.615 -0.298,-0.337 -0.588,-0.688 -0.933,-0.974 -0.572,-0.479 -1.191,-0.904 -1.781,-1.36 -0.912,-0.701 -1.817,-1.406 -2.718,-2.121 -0.377,-0.298 -0.724,-0.632 -1.104,-0.93 -0.466,-0.364 -0.948,-0.707 -1.424,-1.059 -0.123,-0.089 -0.244,-0.19 -0.38,-0.259 -0.618,-0.315 -1.006,-0.124 -1.274,0.522 -0.189,0.447 -0.473,0.861 -0.733,1.276 -0.235,0.367 -0.487,0.727 -0.751,1.076 -0.259,0.344 -0.526,0.681 -0.812,1 -0.949,1.064 -2.056,1.951 -3.275,2.679 -0.629,0.372 -1.308,0.665 -1.976,0.967 -0.465,0.212 -0.935,0.455 -1.427,0.544 -1.139,0.208 -2.242,0.708 -3.442,0.465 -0.071,-0.015 -0.147,-0.016 -0.216,0 -0.917,0.197 -1.793,-0.056 -2.67,-0.246 -0.448,-0.095 -0.909,-0.191 -1.325,-0.371 -1.021,-0.438 -2.103,-0.784 -2.965,-1.508 -0.99,-0.831 -1.932,-1.709 -2.673,-2.793 -0.751,-1.096 -1.3,-2.279 -1.659,-3.538 -0.239,-0.841 -0.335,-1.726 -0.47,-2.593 -0.031,-0.194 0.037,-0.404 0.051,-0.61 0.038,-0.53 0.054,-1.066 0.117,-1.595 0.044,-0.348 0.15,-0.69 0.239,-1.035 0.144,-0.542 0.288,-1.085 0.45,-1.621 0.072,-0.244 0.187,-0.473 0.288,-0.708 0.414,-0.974 0.923,-1.892 1.618,-2.703 0.377,-0.44 0.688,-0.939 1.043,-1.402 0.494,-0.641 1.194,-1.018 1.859,-1.446 0.474,-0.303 0.911,-0.664 1.375,-0.985 0.149,-0.104 0.333,-0.158 0.497,-0.239 0.322,-0.16 0.632,-0.349 0.966,-0.476 0.664,-0.256 1.336,-0.502 2.018,-0.703 0.587,-0.171 0.978,-0.606 0.986,-1.22 0.006,-0.349 0.012,-0.699 0,-1.05 -0.015,-0.426 0.059,-0.82 0.228,-1.224 0.207,-0.491 0.307,-1.027 0.486,-1.532 0.156,-0.439 0.334,-0.873 0.55,-1.285 0.452,-0.869 1.023,-1.678 1.733,-2.34 0.896,-0.836 1.677,-1.812 2.792,-2.404 0.314,-0.166 0.57,-0.444 0.889,-0.6 0.502,-0.249 1.036,-0.438 1.556,-0.646 0.561,-0.224 1.119,-0.443 1.682,-0.657 0.113,-0.043 0.241,-0.052 0.36,-0.078 0.349,-0.076 0.697,-0.163 1.048,-0.23 0.299,-0.057 0.604,-0.13 0.909,-0.133 0.869,0 1.742,-0.083 2.603,0.153 0.271,0.071 0.576,0.006 0.858,0.059 0.551,0.107 1.108,0.215 1.639,0.391 0.697,0.229 1.394,0.478 2.05,0.805 0.668,0.332 1.289,0.757 1.917,1.163 0.165,0.108 0.282,0.297 0.416,0.453 0.671,0.772 1.35,1.542 2.003,2.33 0.168,0.199 0.244,0.471 0.373,0.7 0.52,0.913 0.869,1.892 1.12,2.908 0.046,0.187 0.096,0.377 0.103,0.566 0.028,0.996 0.062,1.991 0.053,2.986 -0.002,0.329 -0.109,0.658 -0.185,0.984 -0.132,0.578 -0.215,1.173 -0.426,1.721 -0.28,0.734 -0.607,1.462 -1.016,2.129 -0.518,0.846 -1.08,1.677 -1.727,2.423 -0.619,0.714 -1.291,1.396 -2.149,1.865 -0.396,0.216 -0.724,0.565 -1.046,0.893 -0.208,0.209 -0.18,0.523 0.032,0.794 0.146,0.184 0.308,0.361 0.487,0.511 0.537,0.443 1.057,0.924 1.642,1.29 1.071,0.667 1.986,1.521 2.954,2.31 0.66,0.534 1.277,1.136 1.995,1.577 0.561,0.347 1.066,0.735 1.548,1.179 0.358,0.332 0.793,0.581 1.197,0.862 0.388,0.272 0.684,0.283 1.074,0.002 0.55,-0.396 1.082,-0.809 1.622,-1.216 1.161,-0.877 2.331,-1.745 3.477,-2.643 0.477,-0.373 0.886,-0.824 1.479,-1.034 0.095,-0.032 0.158,-0.155 0.232,-0.236 0.128,-0.136 0.238,-0.291 0.38,-0.4 0.583,-0.448 1.181,-0.876 1.767,-1.32 0.426,-0.32 0.85,-0.643 1.258,-0.985 0.52,-0.438 0.447,-0.941 -0.094,-1.343 -0.686,-0.507 -1.354,-1.042 -1.975,-1.622 -0.559,-0.52 -1.086,-1.091 -1.557,-1.691 -0.357,-0.454 -0.62,-0.989 -0.911,-1.494 -0.315,-0.55 -0.503,-1.152 -0.735,-1.736 -0.274,-0.687 -0.276,-1.415 -0.51,-2.104 -0.129,-0.393 -0.064,-0.854 -0.067,-1.284 -0.007,-0.532 -0.048,-1.074 0.029,-1.599 0.103,-0.724 0.25,-1.447 0.474,-2.141 0.232,-0.724 0.575,-1.412 0.875,-2.115 0.048,-0.112 0.129,-0.211 0.199,-0.308 0.459,-0.593 0.911,-1.191 1.384,-1.771 0.238,-0.294 0.5,-0.571 0.775,-0.834 0.406,-0.389 0.826,-0.766 1.252,-1.133 0.168,-0.143 0.381,-0.233 0.566,-0.355 0.404,-0.265 0.801,-0.532 1.205,-0.796 0.117,-0.077 0.24,-0.146 0.367,-0.203 0.316,-0.135 0.637,-0.265 0.959,-0.387 0.271,-0.106 0.543,-0.222 0.822,-0.297 0.791,-0.205 1.59,-0.396 2.389,-0.576 0.277,-0.062 0.561,-0.096 0.846,-0.11 0.381,-0.018 0.76,-0.005 1.143,-0.005 -10e-4,-0.002 -10e-4,-0.005 -10e-4,-0.007 z m -0.047,19.962 c 0,-0.007 0,-0.016 0,-0.022 0.463,0 0.926,-0.012 1.387,0.003 0.545,0.015 1.09,0.036 1.629,0.083 0.32,0.03 0.455,0.283 0.342,0.584 -0.123,0.321 -0.26,0.639 -0.371,0.966 -0.188,0.58 -0.369,1.165 -0.535,1.753 -0.055,0.175 -0.062,0.363 -0.064,0.549 -0.008,0.704 0.004,1.408 -0.004,2.112 -0.008,0.508 -0.023,1.01 0.297,1.446 0.049,0.071 0.049,0.178 0.074,0.267 0.061,0.216 0.094,0.443 0.178,0.647 0.48,1.129 1.244,2.042 2.193,2.809 0.148,0.12 0.299,0.252 0.42,0.401 0.535,0.662 1.371,0.878 2.016,1.377 0.037,0.03 0.096,0.039 0.146,0.049 1.025,0.25 2.045,0.471 3.119,0.486 0.744,0.008 1.451,-0.106 2.139,-0.309 0.748,-0.218 1.484,-0.533 2.18,-0.891 1.145,-0.59 2.119,-1.423 2.84,-2.487 0.553,-0.821 1.146,-1.649 1.211,-2.699 0.004,-0.088 0.072,-0.17 0.098,-0.258 0.047,-0.134 0.131,-0.274 0.123,-0.405 -0.057,-1.219 0.242,-2.468 -0.295,-3.646 -0.029,-0.062 -0.045,-0.137 -0.051,-0.208 -0.121,-0.891 -0.6,-1.622 -1.066,-2.356 -0.064,-0.102 -0.162,-0.186 -0.252,-0.269 -0.297,-0.269 -0.59,-0.544 -0.895,-0.798 -0.293,-0.241 -0.596,-0.467 -0.91,-0.683 -0.238,-0.17 -0.494,-0.327 -0.756,-0.463 -0.398,-0.206 -0.789,-0.479 -1.213,-0.569 -0.855,-0.182 -1.695,-0.5 -2.596,-0.393 -0.125,0.016 -0.268,0 -0.395,-0.039 -0.762,-0.233 -1.537,-0.228 -2.318,-0.183 -0.258,0.014 -0.512,0.006 -0.768,-0.015 -0.49,-0.038 -0.652,-0.358 -0.434,-0.794 0.102,-0.208 0.164,-0.438 0.246,-0.655 0.051,-0.131 0.094,-0.272 0.168,-0.393 0.27,-0.452 0.395,-0.937 0.381,-1.465 -0.008,-0.233 0.033,-0.468 0.047,-0.702 0.016,-0.297 0.006,-0.598 0.041,-0.892 0.086,-0.727 -0.152,-1.404 -0.375,-2.063 -0.207,-0.626 -0.322,-1.322 -0.857,-1.804 -0.029,-0.026 -0.047,-0.065 -0.066,-0.103 -0.615,-1.147 -1.559,-1.979 -2.654,-2.627 -0.773,-0.459 -1.607,-0.771 -2.514,-0.925 -1.254,-0.207 -2.506,-0.172 -3.746,-0.004 -0.654,0.09 -1.336,0.304 -1.904,0.633 -1.279,0.741 -2.471,1.592 -3.34,2.859 -0.645,0.941 -1.143,1.926 -1.457,3.012 -0.021,0.077 -0.016,0.163 -0.025,0.244 -0.055,0.505 -0.109,1.012 -0.164,1.52 -0.008,0.069 -0.02,0.143 -0.008,0.212 0.133,0.729 0.146,1.483 0.531,2.155 0.316,0.56 0.576,1.151 0.902,1.704 0.412,0.693 1.049,1.168 1.693,1.632 1.326,0.956 2.715,1.727 4.43,1.62 0.401,-0.022 0.801,-0.003 1.202,-0.003 z m -34.81,0.576 c 0.561,0.022 1.205,0.016 1.802,-0.283 0.036,-0.019 0.079,-0.019 0.119,-0.03 0.688,-0.173 1.373,-0.358 1.979,-0.739 0.351,-0.224 0.689,-0.477 1.006,-0.751 0.5,-0.437 1.04,-0.856 1.449,-1.37 0.675,-0.846 1.284,-1.729 1.546,-2.828 0.235,-0.994 0.454,-1.973 0.305,-2.993 -0.066,-0.443 -0.136,-0.887 -0.256,-1.316 -0.194,-0.681 -0.515,-1.298 -0.893,-1.904 -0.406,-0.652 -0.896,-1.198 -1.494,-1.653 -0.807,-0.617 -1.741,-1.005 -2.686,-1.334 -0.602,-0.21 -1.262,-0.268 -1.899,-0.347 -0.737,-0.091 -1.477,-0.037 -2.196,0.162 -0.658,0.182 -1.312,0.374 -1.967,0.567 -0.155,0.045 -0.307,0.109 -0.449,0.186 -0.807,0.435 -1.424,1.104 -2.087,1.714 -1.086,0.999 -1.907,2.17 -2.223,3.627 -0.216,0.999 -0.615,1.974 -0.286,3.048 0.254,0.822 0.235,1.706 0.61,2.52 0.29,0.627 0.014,0.947 -0.687,0.944 -0.568,-0.002 -1.142,0.094 -1.712,0.158 -0.426,0.049 -0.847,0.137 -1.27,0.167 -0.642,0.047 -1.28,0.043 -1.894,0.307 -1.118,0.48 -2.237,0.928 -3.17,1.773 -1.01,0.92 -1.861,1.921 -2.316,3.224 -0.115,0.339 -0.27,0.663 -0.37,1.003 -0.164,0.547 -0.405,1.098 -0.419,1.649 -0.02,0.822 0.113,1.651 0.219,2.47 0.032,0.222 0.26,0.419 0.28,0.637 0.052,0.568 0.28,1.034 0.653,1.449 0.266,0.295 0.498,0.621 0.774,0.9 0.516,0.521 0.987,1.079 1.652,1.449 0.931,0.519 1.874,0.947 2.937,1.105 0.788,0.116 1.568,0.183 2.359,0.068 0.963,-0.141 1.88,-0.392 2.692,-0.957 0.443,-0.31 0.896,-0.607 1.365,-0.875 0.488,-0.284 0.908,-0.64 1.226,-1.101 0.414,-0.601 0.821,-1.203 1.19,-1.826 0.217,-0.368 0.412,-0.767 0.515,-1.177 0.194,-0.782 0.323,-1.583 0.464,-2.377 0.026,-0.156 -0.013,-0.325 -0.037,-0.486 -0.022,-0.148 -0.097,-0.298 -0.097,-0.447 0,-0.794 -0.051,-1.58 -0.305,-2.339 -0.098,-0.29 -0.182,-0.584 -0.274,-0.873 -0.158,-0.488 0.111,-0.975 0.557,-0.992 1.07,-0.045 2.136,-0.082 3.288,-0.129 z"
             id="path33"
             inkscape:connector-curvature="0"
             style="fill:#ffffff;fill-rule:evenodd" /></g></g></g><g
       id="g35"><path
         d="m 301.389,249.77 h 1.33 v 2.771 h -1.33 c -0.377,-0.996 -1.031,-1.493 -1.962,-1.493 -0.77,0 -1.351,0.262 -1.745,0.786 -0.394,0.524 -0.591,1.152 -0.591,1.883 0,0.766 0.208,1.385 0.625,1.858 0.417,0.473 0.947,0.709 1.592,0.709 0.528,0 0.99,-0.179 1.386,-0.537 0.396,-0.358 0.664,-0.856 0.803,-1.493 l 1.55,0.738 c -0.588,1.827 -1.883,2.74 -3.886,2.74 -1.414,0 -2.48,-0.381 -3.198,-1.143 -0.718,-0.762 -1.078,-1.725 -1.078,-2.89 0,-0.83 0.187,-1.556 0.56,-2.178 0.373,-0.622 0.875,-1.091 1.507,-1.406 0.631,-0.314 1.324,-0.472 2.079,-0.472 0.939,0 1.725,0.245 2.358,0.735 v -0.608 z"
         id="path37"
         inkscape:connector-curvature="0"
         style="fill:#ffffff" /></g><g
       id="g39"><path
         d="m 250.498,314.226 v 1.329 h -4.146 v -1.329 h 1.001 v -5.209 h -1.001 v -1.329 h 4.146 c 0.965,0 1.711,0.226 2.237,0.679 0.526,0.453 0.789,1.062 0.789,1.827 0,0.437 -0.092,0.834 -0.277,1.19 -0.185,0.356 -0.421,0.63 -0.709,0.82 -0.289,0.19 -0.619,0.32 -0.99,0.39 -0.371,0.07 -0.836,0.104 -1.394,0.104 H 249.4 v 1.527 h 1.098 z m -1.098,-2.84 h 0.306 c 0.701,0 1.153,-0.114 1.354,-0.342 0.201,-0.228 0.303,-0.512 0.303,-0.851 0,-0.287 -0.07,-0.531 -0.209,-0.733 -0.14,-0.202 -0.3,-0.326 -0.48,-0.373 -0.181,-0.047 -0.477,-0.071 -0.888,-0.071 H 249.4 v 2.37 z"
         id="path41"
         inkscape:connector-curvature="0"
         style="fill:#ffffff" /></g><g
       id="g43"><path
         d="m 345.177,315.605 -2.342,-6.589 h -0.938 v -1.329 h 4.016 v 1.329 h -1.019 l 1.323,3.943 1.327,-3.943 h -1.004 v -1.329 h 3.484 v 1.329 h -0.956 l -2.257,6.589 h -1.634 z"
         id="path45"
         inkscape:connector-curvature="0"
         style="fill:#ffffff" /></g><g
       id="g47"><g
         id="g49"><path
           d="m 307.213,349.426 c 0.004,-0.077 -0.029,-0.151 -0.119,-0.274 -0.587,-0.705 -2.368,-2.62 -4.968,-3.489 -0.036,-0.011 -0.078,-0.026 -0.089,-0.01 0,0 -0.02,0.018 0.035,0.071 0.818,0.765 1.329,1.851 1.329,3.059 0,2.23 -1.747,4.054 -3.948,4.175 -0.016,0 -0.17,0.006 -0.232,0.006 -0.063,0 -0.212,-0.005 -0.224,-0.006 l 0,0 c -2.206,-0.117 -3.958,-1.941 -3.958,-4.175 0,-1.208 0.513,-2.294 1.33,-3.059 0.054,-0.054 0.035,-0.071 0.035,-0.071 -0.01,-0.017 -0.054,-0.001 -0.089,0.01 -2.601,0.869 -4.38,2.784 -4.969,3.489 -0.091,0.123 -0.123,0.197 -0.119,0.274 0,0 0.001,0.131 0.106,0.273 0.137,0.187 0.271,0.365 0.406,0.538 0,0 0.005,0.005 0.005,0.006 l 0,0 c 3.057,3.598 5.904,4.174 7.36,4.189 0.006,0 0.084,10e-4 0.115,0 0.024,10e-4 0.299,-0.005 0.327,-0.007 l 0,0 c 1.512,-0.069 4.239,-0.753 7.157,-4.193 h -10e-4 c 0.134,-0.171 0.269,-0.349 0.402,-0.533 0.109,-0.142 0.109,-0.273 0.109,-0.273 z"
           id="path51"
           inkscape:connector-curvature="0"
           style="fill:#ffffff" /></g><circle
         cx="299.194"
         cy="348.92801"
         r="1.335"
         id="circle53"
         sodipodi:cx="299.194"
         sodipodi:cy="348.92801"
         sodipodi:rx="1.335"
         sodipodi:ry="1.335"
         style="fill:#ffffff"
         d="m 300.529,348.92801 c 0,0.7373 -0.5977,1.335 -1.335,1.335 -0.7373,0 -1.335,-0.5977 -1.335,-1.335 0,-0.7373 0.5977,-1.335 1.335,-1.335 0.7373,0 1.335,0.5977 1.335,1.335 z" /></g><g
       id="g55"><g
         id="g57"><path
           d="m 142.717,334.109 c 0.008,-0.146 -0.055,-0.285 -0.224,-0.516 -1.101,-1.322 -4.439,-4.912 -9.314,-6.543 -0.068,-0.02 -0.146,-0.049 -0.166,-0.017 0,0 -0.037,0.031 0.065,0.133 1.533,1.435 2.491,3.471 2.491,5.735 0,4.182 -3.274,7.601 -7.403,7.828 -0.029,0 -0.317,0.01 -0.435,0.01 -0.119,0 -0.397,-0.009 -0.42,-0.01 l 0,0 c -4.136,-0.22 -7.422,-3.641 -7.422,-7.828 0,-2.265 0.962,-4.301 2.495,-5.735 0.101,-0.102 0.066,-0.133 0.066,-0.133 -0.02,-0.032 -0.102,-0.003 -0.167,0.017 -4.877,1.631 -8.212,5.221 -9.316,6.543 -0.17,0.23 -0.231,0.37 -0.224,0.516 0,0 0.002,0.244 0.2,0.513 0.256,0.349 0.508,0.684 0.762,1.008 0,0 0.008,0.01 0.008,0.011 l 0,0 c 5.731,6.746 11.071,7.826 13.801,7.855 0.012,0 0.158,0.003 0.217,0 0.045,0.003 0.56,-0.01 0.613,-0.012 l 0,0 c 2.834,-0.131 7.949,-1.412 13.42,-7.864 h -0.002 c 0.251,-0.319 0.503,-0.653 0.753,-0.998 0.202,-0.268 0.202,-0.513 0.202,-0.513 z"
           id="path59"
           inkscape:connector-curvature="0" /></g><path
         d="m 130.187,333.174 c 0,-1.382 -1.119,-2.502 -2.504,-2.502 -1.385,0 -2.505,1.12 -2.505,2.502 0,1.387 1.12,2.505 2.505,2.505 1.385,0 2.504,-1.118 2.504,-2.505 z"
         id="path61"
         inkscape:connector-curvature="0" /></g><g
       id="g63"><g
         id="g65"><path
           d="m 142.717,267.132 c 0.008,-0.146 -0.055,-0.285 -0.224,-0.516 -1.101,-1.322 -4.439,-4.912 -9.314,-6.543 -0.068,-0.02 -0.146,-0.049 -0.166,-0.017 0,0 -0.037,0.031 0.065,0.133 1.533,1.435 2.491,3.471 2.491,5.735 0,4.182 -3.274,7.601 -7.403,7.828 -0.029,0 -0.317,0.01 -0.435,0.01 -0.119,0 -0.397,-0.009 -0.42,-0.01 l 0,0 c -4.136,-0.22 -7.422,-3.641 -7.422,-7.828 0,-2.265 0.962,-4.301 2.495,-5.735 0.101,-0.102 0.066,-0.133 0.066,-0.133 -0.02,-0.032 -0.102,-0.003 -0.167,0.017 -4.877,1.631 -8.212,5.221 -9.316,6.543 -0.17,0.23 -0.231,0.37 -0.224,0.516 0,0 0.002,0.244 0.2,0.513 0.256,0.349 0.508,0.684 0.762,1.008 0,0 0.008,0.01 0.008,0.011 l 0,0 c 5.731,6.746 11.071,7.826 13.801,7.855 0.012,0 0.158,0.003 0.217,0 0.045,0.003 0.56,-0.01 0.613,-0.012 l 0,0 c 2.834,-0.131 7.949,-1.412 13.42,-7.864 h -0.002 c 0.251,-0.319 0.503,-0.653 0.753,-0.998 0.202,-0.269 0.202,-0.513 0.202,-0.513 z"
           id="path67"
           inkscape:connector-curvature="0" /></g><path
         d="m 130.187,266.196 c 0,-1.382 -1.119,-2.502 -2.504,-2.502 -1.385,0 -2.505,1.12 -2.505,2.502 0,1.387 1.12,2.505 2.505,2.505 1.385,0 2.504,-1.118 2.504,-2.505 z"
         id="path69"
         inkscape:connector-curvature="0" /></g><g
       id="g71"><g
         id="g73"><path
           d="m 492.052,334.109 c 0.008,-0.146 -0.055,-0.285 -0.224,-0.516 -1.101,-1.322 -4.439,-4.912 -9.314,-6.543 -0.068,-0.02 -0.146,-0.049 -0.166,-0.017 0,0 -0.037,0.031 0.065,0.133 1.533,1.435 2.491,3.471 2.491,5.735 0,4.182 -3.274,7.601 -7.403,7.828 -0.029,0 -0.317,0.01 -0.435,0.01 -0.119,0 -0.397,-0.009 -0.42,-0.01 l 0,0 c -4.136,-0.22 -7.422,-3.641 -7.422,-7.828 0,-2.265 0.962,-4.301 2.495,-5.735 0.101,-0.102 0.066,-0.133 0.066,-0.133 -0.02,-0.032 -0.102,-0.003 -0.167,0.017 -4.877,1.631 -8.212,5.221 -9.316,6.543 -0.17,0.23 -0.231,0.37 -0.224,0.516 0,0 0.002,0.244 0.2,0.513 0.256,0.349 0.508,0.684 0.762,1.008 0,0 0.008,0.01 0.008,0.011 l 0,0 c 5.731,6.746 11.071,7.826 13.801,7.855 0.012,0 0.158,0.003 0.217,0 0.045,0.003 0.56,-0.01 0.613,-0.012 l 0,0 c 2.834,-0.131 7.949,-1.412 13.42,-7.864 h -0.002 c 0.251,-0.319 0.503,-0.653 0.753,-0.998 0.202,-0.268 0.202,-0.513 0.202,-0.513 z"
           id="path75"
           inkscape:connector-curvature="0" /></g><path
         d="m 479.521,333.174 c 0,-1.382 -1.119,-2.502 -2.504,-2.502 -1.385,0 -2.505,1.12 -2.505,2.502 0,1.387 1.12,2.505 2.505,2.505 1.385,0 2.504,-1.118 2.504,-2.505 z"
         id="path77"
         inkscape:connector-curvature="0" /></g><g
       id="g79"><g
         id="g81"><path
           d="m 492.052,267.132 c 0.008,-0.146 -0.055,-0.285 -0.224,-0.516 -1.101,-1.322 -4.439,-4.912 -9.314,-6.543 -0.068,-0.02 -0.146,-0.049 -0.166,-0.017 0,0 -0.037,0.031 0.065,0.133 1.533,1.435 2.491,3.471 2.491,5.735 0,4.182 -3.274,7.601 -7.403,7.828 -0.029,0 -0.317,0.01 -0.435,0.01 -0.119,0 -0.397,-0.009 -0.42,-0.01 l 0,0 c -4.136,-0.22 -7.422,-3.641 -7.422,-7.828 0,-2.265 0.962,-4.301 2.495,-5.735 0.101,-0.102 0.066,-0.133 0.066,-0.133 -0.02,-0.032 -0.102,-0.003 -0.167,0.017 -4.877,1.631 -8.212,5.221 -9.316,6.543 -0.17,0.23 -0.231,0.37 -0.224,0.516 0,0 0.002,0.244 0.2,0.513 0.256,0.349 0.508,0.684 0.762,1.008 0,0 0.008,0.01 0.008,0.011 l 0,0 c 5.731,6.746 11.071,7.826 13.801,7.855 0.012,0 0.158,0.003 0.217,0 0.045,0.003 0.56,-0.01 0.613,-0.012 l 0,0 c 2.834,-0.131 7.949,-1.412 13.42,-7.864 h -0.002 c 0.251,-0.319 0.503,-0.653 0.753,-0.998 0.202,-0.269 0.202,-0.513 0.202,-0.513 z"
           id="path83"
           inkscape:connector-curvature="0" /></g><path
         d="m 479.521,266.196 c 0,-1.382 -1.119,-2.502 -2.504,-2.502 -1.385,0 -2.505,1.12 -2.505,2.502 0,1.387 1.12,2.505 2.505,2.505 1.385,0 2.504,-1.118 2.504,-2.505 z"
         id="path85"
         inkscape:connector-curvature="0" /></g><g
       id="g87"><path
         d="m 65.985,290.178 h 3.901 v 8.135 h -3.901 c -1.107,-2.922 -3.027,-4.383 -5.761,-4.383 -2.258,0 -3.965,0.77 -5.122,2.308 -1.157,1.539 -1.735,3.381 -1.735,5.528 0,2.247 0.611,4.065 1.834,5.454 1.223,1.389 2.781,2.083 4.673,2.083 1.549,0 2.905,-0.525 4.067,-1.577 1.162,-1.051 1.948,-2.512 2.357,-4.383 l 4.549,2.167 c -1.727,5.362 -5.528,8.043 -11.405,8.043 -4.15,0 -7.28,-1.118 -9.388,-3.354 -2.108,-2.235 -3.163,-5.063 -3.163,-8.483 0,-2.435 0.548,-4.565 1.644,-6.392 1.096,-1.827 2.57,-3.201 4.424,-4.125 1.854,-0.924 3.887,-1.386 6.101,-1.386 2.756,0 5.063,0.72 6.923,2.158 v -1.793 z"
         id="path89"
         inkscape:connector-curvature="0"
         style="fill:#ffffff" /><path
         d="m 101.375,309.37 v 3.901 H 94.34 l -5.214,-10.11 h -2.643 v 6.209 h 2.889 v 3.901 H 77.303 v -3.901 h 3.171 v -15.29 h -3.171 v -3.901 h 13.929 c 2.623,0 4.513,0.662 5.669,1.984 1.156,1.323 1.735,2.82 1.735,4.491 0,2.623 -1.334,4.538 -4.001,5.744 l 3.752,6.973 h 2.988 z m -14.892,-9.895 h 2.059 c 2.545,0 3.818,-0.907 3.818,-2.723 0,-0.896 -0.291,-1.566 -0.872,-2.009 -0.581,-0.442 -1.381,-0.664 -2.399,-0.664 h -2.606 v 5.396 z"
         id="path91"
         inkscape:connector-curvature="0"
         style="fill:#ffffff" /><path
         d="m 110.468,313.271 v -3.901 h 3.237 v -6.242 l -6.259,-9.048 h -2.822 v -3.901 h 11.555 v 3.901 h -2.272 l 3.39,5.63 3.441,-5.63 h -2.384 v -3.901 h 10.177 v 3.901 h -2.839 l -5.977,9.048 v 6.242 h 3.221 v 3.901 h -12.468 z"
         id="path93"
         inkscape:connector-curvature="0"
         style="fill:#ffffff" /><path
         d="m 146.389,309.37 v 3.901 H 134.22 v -3.901 h 2.938 v -15.29 h -2.938 v -3.901 h 12.169 c 2.833,0 5.022,0.664 6.566,1.992 1.544,1.328 2.316,3.116 2.316,5.362 0,1.284 -0.271,2.449 -0.813,3.495 -0.542,1.046 -1.237,1.849 -2.083,2.407 -0.847,0.559 -1.815,0.941 -2.905,1.146 -1.09,0.205 -2.455,0.307 -4.092,0.307 h -2.208 v 4.482 h 3.219 z m -3.221,-8.334 h 0.896 c 2.059,0 3.384,-0.334 3.976,-1.004 0.592,-0.669 0.888,-1.502 0.888,-2.499 0,-0.841 -0.205,-1.558 -0.614,-2.15 -0.41,-0.592 -0.88,-0.957 -1.411,-1.096 -0.531,-0.138 -1.4,-0.208 -2.606,-0.208 h -1.129 v 6.957 z"
         id="path95"
         inkscape:connector-curvature="0"
         style="fill:#ffffff" /><path
         d="m 165.659,313.271 v -3.901 h 3.47 v -15.29 h -3.47 v 5.379 h -3.968 v -9.28 h 20.935 v 9.28 h -3.918 v -5.379 h -3.569 v 15.29 h 3.47 v 3.901 h -12.95 z"
         id="path97"
         inkscape:connector-curvature="0"
         style="fill:#ffffff" /><path
         d="m 202.078,289.813 c 3.984,0 7.119,1.151 9.405,3.453 2.285,2.302 3.428,5.108 3.428,8.417 0,3.32 -1.146,6.129 -3.437,8.425 -2.291,2.297 -5.423,3.445 -9.396,3.445 -4.128,0 -7.299,-1.181 -9.513,-3.544 -2.214,-2.363 -3.32,-5.138 -3.32,-8.326 0,-3.298 1.137,-6.101 3.412,-8.409 2.275,-2.308 5.414,-3.461 9.421,-3.461 z m 0,4.217 c -1.771,0 -3.273,0.664 -4.507,1.992 -1.234,1.328 -1.851,3.276 -1.851,5.844 0,2.269 0.608,4.084 1.826,5.445 1.217,1.361 2.728,2.042 4.532,2.042 1.771,0 3.276,-0.667 4.516,-2 1.239,-1.333 1.859,-3.256 1.859,-5.769 0,-2.247 -0.592,-4.067 -1.776,-5.462 -1.185,-1.395 -2.718,-2.092 -4.599,-2.092 z"
         id="path99"
         inkscape:connector-curvature="0"
         style="fill:#ffffff" /></g><g
       id="g101"><path
         d="m 251.43,391.359 -4.043,-11.377 h -1.621 v -2.295 h 6.934 v 2.295 h -1.758 l 2.285,6.808 2.291,-6.808 h -1.733 v -2.295 h 6.016 v 2.295 h -1.65 l -3.896,11.377 h -2.825 z"
         id="path103"
         inkscape:connector-curvature="0" /><path
         d="m 262.199,391.271 v -2.295 h 2.061 v -8.994 h -2.061 v -2.295 h 7.676 v 2.295 h -2.08 v 8.994 h 2.08 v 2.295 h -7.676 z"
         id="path105"
         inkscape:connector-curvature="0" /><path
         d="m 272.852,391.271 v -2.295 h 1.943 v -8.994 h -1.943 v -2.295 h 7.461 v 2.295 h -1.982 v 8.994 h 4.014 v -4.199 h 2.646 v 6.494 h -12.139 z"
         id="path107"
         inkscape:connector-curvature="0" /><path
         d="m 287.771,391.271 v -2.295 h 1.943 v -8.994 h -1.943 v -2.295 h 7.461 v 2.295 h -1.982 v 8.994 h 4.014 v -4.199 h 2.646 v 6.494 h -12.139 z"
         id="path109"
         inkscape:connector-curvature="0" /><path
         d="m 316.119,388.976 v 2.295 h -6.68 v -2.295 h 1.738 l -0.645,-2.334 h -3.525 l -0.723,2.334 h 1.816 v 2.295 h -6.016 v -2.295 h 1.68 l 2.646,-8.994 h -1.807 v -2.295 h 8.867 v 2.295 h -1.826 l 2.852,8.994 h 1.623 z m -6.142,-4.326 -1.133,-4.092 -1.221,4.092 h 2.354 z"
         id="path111"
         inkscape:connector-curvature="0" /><path
         d="m 327.289,386.71 v -2.295 h 6.367 c 0,1.647 -0.298,2.953 -0.894,3.916 -0.596,0.963 -1.462,1.722 -2.598,2.275 -1.136,0.553 -2.411,0.83 -3.823,0.83 -2.455,0 -4.338,-0.658 -5.649,-1.973 -1.311,-1.315 -1.968,-2.985 -1.968,-5.01 0,-1.406 0.326,-2.648 0.977,-3.726 0.651,-1.078 1.527,-1.89 2.627,-2.437 1.1,-0.547 2.295,-0.82 3.584,-0.82 1.822,0 3.242,0.443 4.258,1.328 v -1.113 h 2.305 v 4.824 h -2.305 c -0.24,-0.814 -0.719,-1.455 -1.436,-1.924 -0.717,-0.469 -1.484,-0.703 -2.305,-0.703 -1.08,0 -2.002,0.382 -2.764,1.147 -0.762,0.765 -1.143,1.825 -1.143,3.179 0,1.549 0.387,2.729 1.162,3.54 0.775,0.811 1.719,1.216 2.832,1.216 0.82,0 1.5,-0.199 2.041,-0.596 0.541,-0.397 0.914,-0.951 1.123,-1.66 h -2.391 z"
         id="path113"
         inkscape:connector-curvature="0" /><path
         d="m 337.248,391.271 v -2.295 h 1.631 v -8.994 h -1.631 v -2.295 h 11.973 v 4.307 h -2.598 v -2.012 h -4.209 v 3.135 h 3.398 v 2.295 h -3.398 v 3.564 h 4.209 v -2.031 h 2.598 v 4.326 h -11.973 z"
         id="path115"
         inkscape:connector-curvature="0" /></g><g
       id="g117"><path
         d="m 393.398,309.37 v 3.901 h -12.169 v -3.901 h 2.938 v -15.29 h -2.938 v -3.901 h 12.169 c 2.833,0 5.021,0.664 6.566,1.992 1.543,1.328 2.315,3.116 2.315,5.362 0,1.284 -0.271,2.449 -0.813,3.495 -0.543,1.046 -1.236,1.849 -2.084,2.407 -0.846,0.559 -1.814,0.941 -2.904,1.146 -1.091,0.205 -2.455,0.307 -4.093,0.307 h -2.208 v 4.482 h 3.221 z m -3.22,-8.334 h 0.896 c 2.059,0 3.384,-0.334 3.977,-1.004 0.592,-0.669 0.888,-1.502 0.888,-2.499 0,-0.841 -0.205,-1.558 -0.614,-2.15 -0.41,-0.592 -0.88,-0.957 -1.411,-1.096 -0.531,-0.138 -1.4,-0.208 -2.606,-0.208 h -1.129 v 6.957 z"
         id="path119"
         inkscape:connector-curvature="0"
         style="fill:#ffffff" /><path
         d="m 431.146,309.37 v 3.901 h -7.034 l -5.214,-10.11 h -2.643 v 6.209 h 2.889 v 3.901 h -12.07 v -3.901 h 3.172 v -15.29 h -3.172 v -3.901 h 13.93 c 2.623,0 4.512,0.662 5.669,1.984 1.156,1.323 1.735,2.82 1.735,4.491 0,2.623 -1.334,4.538 -4.002,5.744 l 3.752,6.973 h 2.988 z m -14.89,-9.895 h 2.059 c 2.545,0 3.818,-0.907 3.818,-2.723 0,-0.896 -0.291,-1.566 -0.872,-2.009 -0.581,-0.442 -1.381,-0.664 -2.399,-0.664 h -2.605 v 5.396 z"
         id="path121"
         inkscape:connector-curvature="0"
         style="fill:#ffffff" /><path
         d="m 435.228,313.271 v -3.901 h 3.503 v -15.29 h -3.503 v -3.901 h 13.049 v 3.901 h -3.536 v 15.29 h 3.536 v 3.901 h -13.049 z"
         id="path123"
         inkscape:connector-curvature="0"
         style="fill:#ffffff" /><path
         d="m 461.97,313.42 -6.873,-19.341 h -2.756 v -3.901 h 11.787 v 3.901 h -2.987 l 3.883,11.573 3.894,-11.573 h -2.946 v -3.901 h 10.227 v 3.901 h -2.806 l -6.624,19.341 h -4.799 z"
         id="path125"
         inkscape:connector-curvature="0"
         style="fill:#ffffff" /><path
         d="m 501.777,309.37 v 3.901 h -11.355 v -3.901 h 2.955 l -1.096,-3.968 h -5.994 l -1.229,3.968 h 3.088 v 3.901 H 477.92 v -3.901 h 2.855 l 4.5,-15.29 h -3.072 v -3.901 h 15.074 v 3.901 h -3.104 l 4.848,15.29 h 2.756 z m -10.443,-7.355 -1.926,-6.956 -2.074,6.956 h 4 z"
         id="path127"
         inkscape:connector-curvature="0"
         style="fill:#ffffff" /><path
         d="m 525.231,290.178 h 3.901 v 8.135 h -3.901 c -1.106,-2.922 -3.027,-4.383 -5.761,-4.383 -2.258,0 -3.965,0.77 -5.121,2.308 -1.157,1.539 -1.735,3.381 -1.735,5.528 0,2.247 0.611,4.065 1.835,5.454 1.223,1.389 2.78,2.083 4.673,2.083 1.55,0 2.905,-0.525 4.067,-1.577 1.162,-1.051 1.947,-2.512 2.357,-4.383 l 4.549,2.167 c -1.727,5.362 -5.528,8.043 -11.405,8.043 -4.15,0 -7.28,-1.118 -9.388,-3.354 -2.109,-2.235 -3.163,-5.063 -3.163,-8.483 0,-2.435 0.548,-4.565 1.644,-6.392 1.096,-1.827 2.57,-3.201 4.424,-4.125 1.854,-0.924 3.888,-1.386 6.102,-1.386 2.756,0 5.063,0.72 6.923,2.158 v -1.793 z"
         id="path129"
         inkscape:connector-curvature="0"
         style="fill:#ffffff" /><path
         d="m 540.17,313.271 v -3.901 h 3.236 v -6.242 l -6.258,-9.048 h -2.822 v -3.901 h 11.555 v 3.901 h -2.273 l 3.391,5.63 3.441,-5.63 h -2.385 v -3.901 h 10.178 v 3.901 h -2.84 l -5.977,9.048 v 6.242 h 3.221 v 3.901 H 540.17 z"
         id="path131"
         inkscape:connector-curvature="0"
         style="fill:#ffffff" /></g><polygon
       points="30.688,263.249 58.825,235.21 30.597,235.21 "
       id="polygon133" /><polygon
       points="58.73,370.35 30.691,342.213 30.691,370.441 "
       id="polygon135" /><polygon
       points="575.794,342.403 547.657,370.441 575.885,370.441 "
       id="polygon137" /><polygon
       points="547.751,235.301 575.79,263.438 575.79,235.21 "
       id="polygon139" /></g></svg>